<svg width="1671" height="233" viewBox="0 0 1671 233" fill="none" xmlns="http://www.w3.org/2000/svg">
<path d="M1669.45 199.294C1670.38 201.625 1670.84 204.072 1670.84 206.636C1670.84 208.966 1669.68 211.414 1667.35 213.978C1665.25 216.541 1661.64 217.823 1656.51 217.823C1651.62 217.823 1648 215.143 1645.67 209.782L1627.14 165.382H1529.6L1511.42 209.782C1509.09 215.143 1505.36 217.823 1500.23 217.823C1495.34 217.823 1491.73 216.541 1489.4 213.978C1487.3 211.414 1486.25 208.966 1486.25 206.636C1486.25 204.072 1486.72 201.625 1487.65 199.294L1560.37 26.9365C1563.63 19.012 1569.22 15.0498 1577.15 15.0498H1579.95C1587.64 15.0498 1593.23 19.012 1596.73 26.9365L1669.45 199.294ZM1617.35 141.608L1578.55 48.2627L1539.74 141.608H1617.35Z" fill="#C05020"/>
<path d="M1455.28 204.888C1455.28 208.384 1454 211.414 1451.44 213.978C1449.1 216.541 1445.96 217.823 1442 217.823C1438.27 217.823 1435.12 216.658 1432.56 214.327C1430.23 211.996 1429.06 208.85 1429.06 204.888V196.147C1429.06 180.765 1427.31 169.461 1423.82 162.235C1420.55 155.01 1415.89 149.3 1409.83 145.104C1404.01 140.676 1395.61 138.462 1384.66 138.462H1325.58V204.888C1325.58 208.384 1324.29 211.414 1321.73 213.978C1319.17 216.541 1316.02 217.823 1312.29 217.823C1308.79 217.823 1305.76 216.541 1303.2 213.978C1300.64 211.414 1299.36 208.384 1299.36 204.888V29.7334C1299.36 26.2373 1300.64 23.2074 1303.2 20.6436C1305.76 17.8467 1308.79 16.4482 1312.29 16.4482H1379.07C1405.17 16.4482 1424.98 22.042 1438.5 33.2295C1451.09 43.7178 1457.26 57.4691 1457.03 74.4834C1457.03 85.4378 1453.88 95.8096 1447.59 105.599C1441.53 115.155 1432.09 122.03 1419.27 126.226C1433.02 129.722 1443.04 139.744 1449.34 156.292C1453.53 167.013 1455.51 178.9 1455.28 191.952V204.888ZM1377.32 113.64C1393.4 113.64 1406.34 110.61 1416.12 104.55C1425.91 98.2568 1430.81 88.9339 1430.81 76.5811C1430.81 65.1605 1426.96 56.5368 1419.27 50.71C1410.18 44.1839 1395.73 40.9209 1375.92 40.9209H1325.58V113.64H1377.32Z" fill="#C05020"/>
<path d="M1148.12 40.9209V104.2H1236.22C1239.49 104.2 1242.4 105.366 1244.96 107.696C1247.53 110.027 1248.81 112.94 1248.81 116.437C1248.81 119.7 1247.53 122.613 1244.96 125.177C1242.63 127.507 1239.72 128.673 1236.22 128.673H1148.12V204.888C1148.12 208.384 1146.84 211.414 1144.28 213.978C1141.71 216.541 1138.57 217.823 1134.84 217.823C1131.34 217.823 1128.31 216.541 1125.75 213.978C1123.18 211.414 1121.9 208.384 1121.9 204.888V29.7334C1121.9 26.2373 1123.18 23.2074 1125.75 20.6436C1128.31 17.8467 1131.34 16.4482 1134.84 16.4482H1246.36C1249.62 16.4482 1252.42 17.7301 1254.75 20.2939C1257.32 22.6247 1258.6 25.4215 1258.6 28.6846C1258.6 31.9476 1257.43 34.861 1255.1 37.4248C1252.77 39.7555 1249.86 40.9209 1246.36 40.9209H1148.12Z" fill="#C05020"/>
<path d="M1050.73 15.0498C1054.22 15.0498 1057.25 16.3317 1059.82 18.8955C1062.38 21.4593 1063.66 24.6058 1063.66 28.335V199.294C1063.66 204.422 1061.8 208.85 1058.07 212.579C1054.34 216.075 1049.91 217.823 1044.78 217.823H1041.29C1034.99 217.823 1029.98 215.259 1026.25 210.132L915.428 50.0107V204.888C915.428 208.384 914.146 211.414 911.582 213.978C909.018 216.541 905.872 217.823 902.143 217.823C898.646 217.823 895.617 216.541 893.053 213.978C890.489 211.414 889.207 208.384 889.207 204.888V33.9287C889.207 28.8011 890.955 24.3727 894.451 20.6436C898.18 16.9144 902.725 15.0498 908.086 15.0498H911.582C917.642 15.0498 923.003 17.9632 927.664 23.79L1037.79 182.862V28.335C1037.79 24.8389 1039.07 21.8089 1041.64 19.2451C1044.2 16.4482 1047.23 15.0498 1050.73 15.0498Z" fill="#C05020"/>
<path d="M818.033 15.0498C821.529 15.0498 824.559 16.3317 827.123 18.8955C829.92 21.4593 831.318 24.6058 831.318 28.335V204.888C831.318 208.384 830.036 211.414 827.473 213.978C824.909 216.541 821.762 217.823 818.033 217.823C814.537 217.823 811.507 216.541 808.943 213.978C806.38 211.414 805.098 208.384 805.098 204.888V28.335C805.098 24.8389 806.38 21.8089 808.943 19.2451C811.507 16.4482 814.537 15.0498 818.033 15.0498Z" fill="#C05020"/>
<path d="M614.52 15.0498C618.016 15.0498 621.046 16.3317 623.609 18.8955C626.173 21.4593 627.455 24.6058 627.455 28.335V199.294C627.455 204.422 625.59 208.85 621.861 212.579C618.132 216.075 613.704 217.823 608.576 217.823H605.08C598.787 217.823 593.776 215.259 590.047 210.132L479.221 50.0107V204.888C479.221 208.384 477.939 211.414 475.375 213.978C472.811 216.541 469.665 217.823 465.936 217.823C462.439 217.823 459.41 216.541 456.846 213.978C454.282 211.414 453 208.384 453 204.888V33.9287C453 28.8011 454.748 24.3727 458.244 20.6436C461.973 16.9144 466.518 15.0498 471.879 15.0498H475.375C481.435 15.0498 486.796 17.9632 491.457 23.79L601.584 182.862V28.335C601.584 24.8389 602.866 21.8089 605.43 19.2451C607.993 16.4482 611.023 15.0498 614.52 15.0498Z" fill="#C05020"/>
<path d="M90.1992 15.0498C93.6953 15.0498 96.7253 16.3317 99.2891 18.8955C102.086 21.4593 103.484 24.6058 103.484 28.335V150.349C103.484 175.287 97.1914 193.7 84.6055 205.587C74.8164 214.677 61.4147 219.222 44.4004 219.222C30.416 219.222 17.7135 215.959 6.29297 209.433C2.09766 207.102 0 204.072 0 200.343C0 196.381 0.932292 193.234 2.79688 190.903C4.89453 188.573 7.22526 187.407 9.78906 187.407C12.3529 187.407 15.0332 187.99 17.8301 189.155C25.0553 192.651 32.0475 194.516 38.8066 194.749C45.5658 194.749 51.043 194.283 55.2383 193.351C59.4336 192.185 63.1628 190.088 66.4258 187.058C73.651 180.065 77.2637 168.528 77.2637 152.446V28.335C77.2637 24.8389 78.5456 21.8089 81.1094 19.2451C83.6732 16.4482 86.7031 15.0498 90.1992 15.0498Z" fill="#C05020"/>
<path d="M188.041 39.5553C210.126 12.6551 247.051 -4.59802 304.315 4.40623L304.591 4.44961L304.864 4.5099C333.53 10.8583 390.91 42.5436 395.755 118.542C396.072 123.521 392.298 127.816 387.325 128.134C382.353 128.452 378.064 124.673 377.746 119.693C373.583 54.3854 324.796 27.5504 301.23 22.2131C249.495 14.1532 219.394 29.8207 201.98 51.0308C184.116 72.7894 178.403 101.859 178.842 122.232C184.443 168.003 206.017 191.386 229.88 202.878C254.104 214.545 281.808 214.457 300.161 210.606C310.009 206.301 312.942 201.779 313.748 198.666C314.653 195.169 313.738 190.249 309.695 183.785C301.584 170.816 284.555 157.625 271.928 150.78C251.463 139.685 240.676 127.683 240.315 114.623C239.954 101.532 250.14 93.2007 257.048 89.6305L257.315 89.4923L257.59 89.3724C275.169 81.7236 291.509 80.9657 306.143 85.3078C320.609 89.6 332.684 98.6536 342.38 109.454C361.594 130.856 372.852 160.646 375.759 181.089C376.461 186.029 373.031 190.604 368.098 191.307C363.165 192.011 358.596 188.576 357.894 183.636C355.412 166.182 345.429 139.879 328.959 121.534C320.813 112.46 311.437 105.726 301.016 102.634C290.837 99.6137 278.954 99.85 265.083 105.815C260.5 108.258 258.284 111.599 258.354 114.124C258.426 116.725 260.985 124.299 280.519 134.889C294.584 142.514 314.585 157.558 324.989 174.194C330.204 182.532 333.918 192.757 331.217 203.198C328.435 213.947 319.652 222.008 306.414 227.584L305.653 227.905L304.846 228.081C283.712 232.717 251.211 233.203 222.059 219.163C192.255 204.81 167.084 175.786 160.873 123.958L160.823 123.538L160.812 123.116C160.211 99.8375 166.496 65.7974 188.041 39.5553ZM278.199 38.8193C300.062 39.2119 320.193 48.6448 332.192 57.1586C336.258 60.0434 337.218 65.6824 334.337 69.7538C331.456 73.8252 325.825 74.7871 321.759 71.9023C311.828 64.8557 295.154 57.1967 277.875 56.8865C261.357 56.59 243.749 62.9249 229.911 84.8586C223.838 96.5662 219.188 114.684 223.753 131.493C228.123 147.581 241.531 164.613 276.23 173.617C281.054 174.868 283.951 179.798 282.702 184.629C281.452 189.459 276.528 192.36 271.704 191.109C232.117 180.837 212.754 159.847 206.341 136.237C200.164 113.496 206.595 90.4119 214.104 76.1323L214.261 75.8323L214.441 75.5449C231.855 47.7114 255.645 38.4144 278.199 38.8193Z" fill="#C05020"/>
<path d="M186.495 38.286C209.095 10.7593 246.769 -6.66702 304.626 2.43055L304.903 2.47352L304.963 2.48329L305.024 2.49696L305.296 2.55751C334.537 9.03311 392.833 41.2583 397.751 118.414C398.139 124.493 393.531 129.741 387.453 130.13C381.376 130.518 376.138 125.9 375.75 119.82C371.664 55.7166 323.861 29.4166 300.85 24.1776C249.756 16.2366 220.42 31.7231 203.527 52.2997C186.083 73.5465 180.428 102.039 180.84 122.09C186.382 167.156 207.55 189.904 230.748 201.076C254.382 212.458 281.497 212.435 299.545 208.69C308.914 204.554 311.219 200.455 311.812 198.165C312.519 195.432 311.91 191.097 308 184.846C300.143 172.282 283.443 159.296 270.976 152.538C250.412 141.39 238.709 128.898 238.317 114.679C237.935 100.86 248.314 92.101 255.449 88.2147L256.13 87.8534L256.397 87.7157L256.456 87.6854L256.517 87.6581L256.792 87.539C274.767 79.7175 291.591 78.9041 306.712 83.3905C321.627 87.8159 334.002 97.1264 343.868 108.117C363.387 129.859 374.785 160.034 377.739 180.808C378.596 186.838 374.409 192.427 368.38 193.287C362.351 194.146 356.772 189.949 355.914 183.918C353.479 166.794 343.637 140.877 327.472 122.87C319.498 113.987 310.42 107.51 300.448 104.551C290.77 101.679 279.392 101.857 265.952 107.618C261.705 109.905 260.316 112.668 260.354 114.068L260.363 114.222C260.515 115.967 262.661 122.933 281.473 133.131C295.697 140.842 316.027 156.092 326.685 173.134C331.944 181.544 335.928 192.151 333.284 203.174L333.154 203.699C330.249 214.924 321.318 223.192 308.448 228.885L307.191 229.428L306.261 229.819L306.08 229.858L305.274 230.034L305.275 230.035C283.831 234.739 250.849 235.248 221.191 220.965C190.736 206.298 165.175 176.661 158.888 124.196L158.887 124.194L158.837 123.774L158.826 123.683L158.824 123.591L158.813 123.168C158.203 99.5712 164.557 65.008 186.495 38.286ZM304.005 6.38173C247.335 -2.52914 211.158 14.5506 189.587 40.8241C168.437 66.586 162.219 100.104 162.812 123.063L162.82 123.388L162.86 123.722C168.994 174.911 193.774 203.321 222.927 217.361C251.572 231.157 283.594 230.696 304.418 226.128L305.044 225.99L305.637 225.741C318.569 220.294 326.716 212.607 329.281 202.697C331.783 193.025 328.381 183.387 323.294 175.254C313.144 159.024 293.472 144.185 279.567 136.647C259.919 125.996 256.459 117.931 256.355 114.18C256.254 110.537 259.28 106.643 264.142 104.051L264.216 104.011L264.293 103.978C278.561 97.8425 290.924 97.5536 301.585 100.717C312.454 103.942 322.13 110.933 330.448 120.198C347.22 138.882 357.345 165.57 359.874 183.354C360.421 187.203 363.979 189.874 367.816 189.327C371.653 188.78 374.326 185.22 373.779 181.371C370.919 161.258 359.802 131.854 340.892 110.79C331.368 100.181 319.591 91.3845 305.574 87.2255C291.427 83.0277 275.57 83.7299 258.389 91.2059L258.171 91.3007L257.967 91.4071C251.286 94.8603 241.986 102.65 242.315 114.568C242.643 126.468 252.515 137.98 272.882 149.021C285.669 155.953 303.026 169.35 311.391 182.725C315.566 189.401 316.786 194.906 315.684 199.167C314.669 203.088 311.134 207.991 300.962 212.438L300.774 212.521L300.572 212.563C281.914 216.479 253.735 216.587 229.012 204.681C204.501 192.876 182.536 168.883 176.857 122.475L176.845 122.375L176.843 122.275C176.397 101.586 182.18 71.997 200.435 49.7616C218.08 28.2692 248.247 12.5805 299.101 19.872L301.538 20.2372L301.606 20.247L301.672 20.2626C325.817 25.7311 375.506 53.1113 379.742 119.565C379.99 123.445 383.331 126.385 387.198 126.138C391.066 125.89 394.006 122.549 393.759 118.669C389.063 44.9979 334.275 13.6675 305.769 6.77235L304.432 6.46278L304.223 6.41591L304.005 6.38173ZM278.236 36.8192C300.607 37.2211 321.121 46.8513 333.349 55.5272C338.315 59.0512 339.488 65.9375 335.97 70.9091C332.451 75.8821 325.57 77.0582 320.602 73.5331C310.9 66.6493 294.609 59.1867 277.839 58.8856C261.999 58.6014 245.085 64.6031 231.649 85.8524C225.743 97.277 221.3 114.828 225.684 130.969C229.828 146.226 242.579 162.819 276.733 171.681C282.627 173.21 286.164 179.233 284.638 185.13C283.112 191.028 277.098 194.574 271.202 193.045C231.074 182.633 211.051 161.205 204.411 136.761C198.06 113.38 204.674 89.7656 212.333 75.2011L212.491 74.9013L212.527 74.8349L212.567 74.7714L212.746 74.4843C230.553 46.0225 255.02 36.4024 278.236 36.8192ZM278.163 40.8192C256.272 40.4262 233.158 49.4003 216.137 76.6054L215.993 76.8339L215.873 77.0624C208.514 91.0569 202.268 113.612 208.272 135.713C214.459 158.49 233.161 179.042 272.207 189.173C275.959 190.146 279.792 187.89 280.766 184.128C281.74 180.364 279.481 176.527 275.729 175.553C240.484 166.408 226.419 148.934 221.823 132.017C217.086 114.574 221.916 95.9298 228.136 83.9374L228.175 83.8632L228.22 83.7909C242.452 61.233 260.735 54.5783 277.911 54.8866C295.699 55.206 312.757 63.062 322.917 70.2714C326.081 72.5156 330.463 71.768 332.705 68.5985C334.949 65.4273 334.199 61.0357 331.034 58.7899C319.264 50.4386 299.517 41.2027 278.163 40.8192Z" fill="#C05020"/>
</svg>
