<svg width="237" height="231" viewBox="0 0 237 231" fill="none" xmlns="http://www.w3.org/2000/svg">
<path d="M28.2674 38.5563C50.3524 11.6561 87.2779 -5.59704 144.542 3.4072L144.818 3.45058L145.09 3.51088C173.757 9.85931 231.137 41.5445 235.981 117.543C236.299 122.522 232.525 126.817 227.552 127.135C222.579 127.453 218.29 123.674 217.973 118.694C213.81 53.3864 165.023 26.5513 141.457 21.2141C89.7218 13.1542 59.6201 28.8217 42.2067 50.0317C24.343 71.7903 18.6293 100.86 19.0686 121.233C24.6694 167.004 46.2432 190.387 70.1066 201.879C94.3303 213.545 122.035 213.458 140.387 209.607C150.235 205.302 153.169 200.78 153.974 197.667C154.879 194.17 153.964 189.25 149.922 182.786C141.811 169.817 124.782 156.626 112.155 149.781C91.6891 138.686 80.9025 126.684 80.5419 113.624C80.1807 100.533 90.3668 92.2017 97.2744 88.6315L97.5416 88.4933L97.817 88.3734C115.395 80.7246 131.735 79.9667 146.37 84.3088C160.835 88.601 172.911 97.6546 182.606 108.455C201.821 129.857 213.078 159.647 215.985 180.09C216.688 185.03 213.258 189.605 208.325 190.308C203.391 191.012 198.823 187.577 198.12 182.637C195.639 165.183 185.655 138.88 169.186 120.535C161.04 111.461 151.663 104.727 141.243 101.635C131.064 98.6146 119.181 98.8509 105.309 104.816C100.727 107.259 98.511 110.6 98.5806 113.125C98.6524 115.726 101.211 123.3 120.746 133.89C134.811 141.515 154.812 156.559 165.216 173.195C170.431 181.533 174.145 191.758 171.443 202.199C168.662 212.948 159.879 221.009 146.64 226.585L145.88 226.906L145.073 227.082C123.939 231.718 91.4371 232.204 62.2852 218.164C32.4815 203.811 7.31041 174.787 1.09964 122.959L1.04971 122.539L1.03869 122.117C0.437498 98.8384 6.72275 64.7984 28.2674 38.5563ZM118.426 37.8203C140.289 38.2129 160.419 47.6458 172.418 56.1595C176.484 59.0444 177.445 64.6834 174.564 68.7548C171.683 72.8262 166.052 73.7881 161.986 70.9033C152.055 63.8566 135.381 56.1977 118.102 55.8875C101.584 55.591 83.9754 61.9259 70.1374 83.8596C64.0648 95.5671 59.4141 113.685 63.9799 130.494C68.3497 146.582 81.7578 163.614 116.457 172.618C121.281 173.869 124.178 178.799 122.928 183.63C121.678 188.46 116.755 191.361 111.931 190.11C72.3433 179.838 52.9809 158.848 46.5675 135.238C40.3904 112.497 46.8212 89.4129 54.3302 75.1333L54.488 74.8333L54.6679 74.5458C72.0818 46.7124 95.8718 37.4154 118.426 37.8203Z" fill="#B85A2E"/>
<path d="M27.4941 37.9217C49.8362 10.7083 87.1364 -6.63208 144.697 2.41882L144.974 2.46277L145.004 2.46765L145.034 2.47448L145.307 2.53405L146.685 2.85339C176.054 9.95547 232.174 42.0981 236.979 117.478C237.332 123.008 233.141 127.779 227.616 128.133C222.091 128.486 217.327 124.287 216.975 118.758C212.85 54.0505 164.552 27.4833 141.265 22.1962C89.8512 14.1963 60.1327 29.7729 42.9794 50.6659C25.3272 72.1669 19.6428 100.946 20.0673 121.157C25.6378 166.578 47.0084 189.645 70.54 200.978C94.4674 212.502 121.875 212.447 140.076 208.649C149.688 204.427 152.307 200.117 153.006 197.416C153.812 194.301 153.05 189.674 149.074 183.316C141.09 170.55 124.226 157.462 111.679 150.66C91.1636 139.539 79.9185 127.291 79.5419 113.651C79.1647 99.9737 89.7947 91.3717 96.8154 87.743L97.1122 87.5897L97.1425 87.576L97.4179 87.4559L98.2499 87.0985C115.712 79.6975 132.009 79.0051 146.654 83.3505C161.344 87.7093 173.569 96.8908 183.351 107.786C202.717 129.358 214.045 159.341 216.976 179.949C217.755 185.435 213.947 190.516 208.466 191.298C202.985 192.079 197.911 188.264 197.131 182.778C194.672 165.489 184.759 139.379 168.442 121.203C160.382 112.225 151.154 105.619 140.958 102.594C131.03 99.6481 119.402 99.8544 105.747 105.717C101.328 108.083 99.5259 111.136 99.58 113.098C99.6361 115.124 101.746 122.452 121.223 133.011C135.367 140.679 155.532 155.826 166.063 172.665C171.342 181.106 175.212 191.624 172.411 202.449C169.521 213.617 160.42 221.866 147.028 227.507L146.268 227.827L146.184 227.863L145.286 228.058L145.287 228.059C123.998 232.729 91.2565 233.227 61.8515 219.065C31.7225 204.555 6.35537 175.225 0.106387 123.078L0.0565822 122.657L0.0507229 122.611L0.0497463 122.565L0.0390041 122.142C-0.566302 98.7051 5.75253 64.4038 27.4941 37.9217ZM144.387 4.39538C87.4196 -4.56217 50.8678 12.6035 29.04 39.1903C7.69235 65.1924 1.44095 98.9717 2.03803 122.091L2.04779 122.468L2.09272 122.84L2.24018 124.043C8.65505 174.797 33.4707 203.178 62.7187 217.264C91.6174 231.181 123.879 230.707 144.858 226.105L145.577 225.947L146.252 225.664C159.337 220.152 167.802 212.277 170.475 201.948C173.076 191.892 169.519 181.96 164.368 173.724C154.091 157.292 134.255 142.351 120.269 134.769C100.678 124.149 97.6687 116.329 97.581 113.152C97.4961 110.069 100.117 106.451 104.839 103.933L104.876 103.914L104.914 103.897C118.984 97.8466 131.107 97.584 141.527 100.676C152.172 103.834 161.699 110.698 169.931 119.867C186.551 138.381 196.605 164.877 199.11 182.496C199.735 186.89 203.798 189.943 208.184 189.318C212.569 188.693 215.62 184.626 214.995 180.231C212.112 159.954 200.924 130.357 181.862 109.123C172.252 98.4184 160.326 89.493 146.085 85.2675C131.694 80.9975 115.596 81.7274 98.2158 89.2899L97.9765 89.3934L97.7333 89.5194C90.939 93.0311 81.1969 101.092 81.5419 113.597C81.8865 126.076 92.2152 137.833 112.632 148.901C125.338 155.79 142.532 169.084 150.769 182.256C154.878 188.826 155.946 194.038 154.942 197.917C154.032 201.434 150.798 206.147 140.788 210.523L140.693 210.564L140.593 210.586C122.087 214.469 94.1464 214.567 69.6728 202.78C45.4858 191.132 23.716 167.444 18.0761 121.354L18.0703 121.305L18.0683 121.255C17.6256 100.724 23.3743 71.3943 41.4335 49.3973C59.1029 27.8755 89.5777 12.1192 141.61 20.2255L141.644 20.2313L141.678 20.2391C165.533 25.6421 214.771 52.7495 218.971 118.63C219.253 123.059 223.068 126.419 227.488 126.137C231.909 125.854 235.266 122.036 234.983 117.606C230.176 42.1872 173.253 10.772 144.874 4.48718L144.634 4.43347L144.387 4.39538ZM118.443 36.8202C140.561 37.2173 160.884 46.7487 172.997 55.3436C177.513 58.548 178.579 64.8104 175.38 69.3319C172.18 73.8542 165.924 74.9236 161.407 71.7186C151.591 64.7534 135.108 57.1933 118.084 56.8876C101.905 56.5971 84.6441 62.7649 71.0068 84.3563C65.0173 95.9225 60.4703 113.757 64.9453 130.232C69.2025 145.905 82.2817 162.717 116.708 171.649C122.067 173.04 125.284 178.516 123.896 183.88C122.508 189.244 117.039 192.469 111.68 191.078C71.8216 180.736 52.1291 159.527 45.6025 135.5C39.3384 112.439 45.8614 89.0899 53.4453 74.6678L53.6035 74.3671L53.6201 74.3348L53.6406 74.3026L53.8203 74.0155C71.4307 45.868 95.5586 36.4094 118.443 36.8202ZM118.407 38.8202C96.1845 38.4213 72.7328 47.5569 55.5156 75.076L55.3525 75.3368L55.2148 75.5985C47.7808 89.7356 41.442 112.555 47.5322 134.975C53.8324 158.169 72.8652 178.94 112.183 189.141C116.47 190.254 120.848 187.675 121.96 183.379C123.071 179.082 120.494 174.699 116.206 173.586C81.2342 164.512 67.4972 147.259 63.0146 130.757C58.3627 113.631 63.1035 95.2493 69.2499 83.3993L69.2695 83.3612L69.2919 83.326C83.327 61.0801 101.273 54.5851 118.12 54.8876C135.653 55.2025 152.519 62.9598 162.564 70.0878C166.179 72.6524 171.185 71.7972 173.747 68.1766C176.309 64.5553 175.455 59.5398 171.84 56.9745C159.955 48.542 140.016 39.2082 118.407 38.8202Z" fill="#B85A2E"/>
</svg>
